Input #0, mov,mp4,m4a,3gp,3g2,mj2, from '/home/hbattu/projects/huberman-gpt/huberman-audio/mp3/tmp182eciox.mp4':
  Metadata:
    major_brand     : dash
    minor_version   : 0
    compatible_brands: iso6mp41
    creation_time   : 2022-08-09T20:43:56.000000Z
  Duration: 01:41:54.16, start: 0.000000, bitrate: 129 kb/s
    Stream #0:0(eng): Audio: aac (LC) (mp4a / 0x6134706D), 44100 Hz, stereo, fltp, 0 kb/s (default)
    Metadata:
      creation_time   : 2022-08-09T20:43:56.000000Z
      handler_name    : ISO Media file produced by Google Inc.
Stream mapping:
  Stream #0:0 -> #0:0 (aac (native) -> mp3 (libmp3lame))
Press [q] to stop, [?] for help
[graph_0_in_0_0 @ 0x562bd4d1d640] tb:1/44100 samplefmt:fltp samplerate:44100 chlayout:0x3
Output #0, mp3, to '../huberman-audio/mp3/h2aWYjSA1Jc.mp3':
  Metadata:
    major_brand     : dash
    minor_version   : 0
    compatible_brands: iso6mp41
    TSSE            : Lavf58.29.100
    Stream #0:0(eng): Audio: mp3 (libmp3lame), 44100 Hz, stereo, fltp, delay 1105 (default)
    Metadata:
      creation_time   : 2022-08-09T20:43:56.000000Z
      handler_name    : ISO Media file produced by Google Inc.
      encoder         : Lavc58.54.100 libmp3lame
No more output streams to write to, finishing.
size=   95535kB time=01:41:54.16 bitrate= 128.0kbits/s speed=96.5x    
[AVIOContext @ 0x562bd4c10900] Statistics: 0 seeks, 127 writeouts
video:0kB audio:95534kB subtitle:0kB other streams:0kB global headers:0kB muxing overhead: 0.000354%
Input file #0 (/home/hbattu/projects/huberman-gpt/huberman-audio/mp3/tmp182eciox.mp4):
  Input stream #0:0 (audio): 263315 packets read (97826597 bytes); 263315 frames decoded (269634560 samples); 
  Total: 263315 packets (97826597 bytes) demuxed
Output file #0 (../huberman-audio/mp3/h2aWYjSA1Jc.mp3):
  Output stream #0:0 (audio): 234058 frames encoded (269634560 samples); 234059 packets muxed (97827108 bytes); 
  Total: 234059 packets (97827108 bytes) muxed
[AVIOContext @ 0x562bd4c32080] Statistics: 2 seeks, 375 writeouts
[AVIOContext @ 0x562bd4c19880] Statistics: 98951629 bytes read, 0 seeks
